<svg width="32" height="32" viewBox="0 0 32 32" fill="none" xmlns="http://www.w3.org/2000/svg">
  <!-- Fondo con gradiente -->
  <rect width="32" height="32" rx="6" fill="url(#gradient)"/>
  
  <!-- Icono de escudo con moneda -->
  <path d="M16 4C17.1 4 18 4.9 18 6C18 7.1 17.1 8 16 8C14.9 8 14 7.1 14 6C14 4.9 14.9 4 16 4ZM26 14V12L16 6L6 12V14C6 20.55 10.84 25.74 16 27C21.16 25.74 26 20.55 26 14Z" fill="white"/>
  
  <!-- Símbolo de peso colombiano -->
  <path d="M16 11C14.34 11 13 12.34 13 14S14.34 17 16 17S19 15.66 19 14S17.66 11 16 11ZM16 15.5C15.17 15.5 14.5 14.83 14.5 14S15.17 12.5 16 12.5S17.5 13.17 17.5 14S16.83 15.5 16 15.5Z" fill="rgba(255,255,255,0.9)"/>
  
  <!-- Definir gradiente -->
  <defs>
    <linearGradient id="gradient" x1="0%" y1="0%" x2="100%" y2="100%">
      <stop offset="0%" style="stop-color:#10B981;stop-opacity:1" />
      <stop offset="100%" style="stop-color:#3B82F6;stop-opacity:1" />
    </linearGradient>
  </defs>
</svg> 